<?xml version="1.0" encoding="utf-8"?>
<!-- Generator: Adobe Illustrator 22.0.1, SVG Export Plug-In . SVG Version: 6.00 Build 0)  -->
<svg version="1.1" id="Layer_1" xmlns="http://www.w3.org/2000/svg" xmlns:xlink="http://www.w3.org/1999/xlink" x="0px" y="0px"
	 viewBox="0 0 350 100" style="enable-background:new 0 0 350 100;" xml:space="preserve">
<style type="text/css">
	.st0{fill:#BFA871;}
	.st1{fill:#FFFFFF;}
</style>
<g>
	<g>
		<rect x="1.9" y="2.8" class="st0" width="94.4" height="94.7"/>
		<path class="st0" d="M95.4,3.7v92.9H2.8V3.7H95.4 M97.2,1.9h-1.8H2.8H1v1.8v92.9v1.8h1.8h92.6h1.8v-1.8V3.7V1.9L97.2,1.9z"/>
	</g>
	<g>
		<path class="st1" d="M142.6,58.7c0,6.3-4.7,10-14,10h-17.1V31.4h16.1c8.3,0,13.1,3.5,13.1,9.6c0,4.3-2.3,7.1-5.7,8.5
			C139.7,50.5,142.6,53.6,142.6,58.7z M115.3,34.6v13.5h11.9c6,0,9.4-2.3,9.4-6.8s-3.5-6.8-9.4-6.8H115.3z M138.6,58.4
			c0-4.8-3.6-7-10.1-7h-13.2v14h13.2C135,65.4,138.6,63.3,138.6,58.4z"/>
		<path class="st1" d="M174.9,65.2v3.4h-26.4V31.4h25.6v3.4h-21.6V48h19.3v3.4h-19.3v13.8H174.9z"/>
		<path class="st1" d="M191.4,34.8h-13.1v-3.4h30.1v3.4h-13.1v33.9h-3.9V34.8z"/>
		<g>
			<path class="st1" d="M246,68.6l-0.1-19.8L236.3,65h-4.7l-9.5-15.5v19.2h-9.7V31.4h8.7l13.1,21.5l12.8-21.5h8.7l0.1,37.3H246z"/>
			<path class="st1" d="M288.1,49.2h9.3v15.4c-4.3,3.1-10.2,4.7-15.7,4.7c-11.9,0-20.6-8-20.6-19.4c0-11.3,8.7-19.4,20.8-19.4
				c7,0,12.6,2.4,16.3,6.8l-6.7,6.1c-2.6-2.8-5.5-4.2-9.1-4.2c-6.4,0-10.6,4.2-10.6,10.6c0,6.3,4.3,10.6,10.5,10.6
				c2,0,3.8-0.4,5.7-1.2V49.2z"/>
			<path class="st1" d="M337.8,68.6l-0.1-19.8L328.1,65h-4.7l-9.5-15.5v19.2h-9.7V31.4h8.7l13.1,21.5l12.8-21.5h8.7l0.1,37.3H337.8z
				"/>
		</g>
	</g>
	<g>
		<path d="M7.3,41.7c0,8.2,1.3,15.8,5.5,22.2v-5.5c0-6.9,5.5-11.6,11.1-14.8C18.1,45.6,11.7,44.3,7.3,41.7"/>
		<path d="M12,35.9h-1.8c-0.3-1.1,2.6-2.9,3.4-1.6L12,35.9z M6.2,35.1c1.6,1.1,3.7,1.6,6.1,1.3c1.8,1.3,4.5-2.4,7.1-2.4
			c4-0.5,9-1.1,11.6,2.4l-1.3-2.6c-3.7-0.3-6.9-1.6-9.8-3.2C14.1,28,11.2,36.4,6.2,35.1"/>
		<path d="M2.8,21.6c1.8,0.5,3.7,1.1,5.5,1.1c4-1.6,5-4.8,3.4-9c-2.4-3.4-5.5-5.3-9-6.1V21.6z"/>
		<path d="M29.2,96.6c0.5-0.5,1.3-1.3,1.8-2.1c10.6-13.7-10-21.6-9.5-34.8c0.5-5.3,3.4-9.2,6.9-13.5l-0.3-0.3
			c-3.2,3.2-4.5,5.3-6.6,8.4c-6.3,12.9,2.6,30.9-6.6,42L29.2,96.6z"/>
		<path d="M71.9,50.1c0,19-9,35.6-23,46.5h46.5V3.7H49C62.9,14.2,71.9,31.1,71.9,50.1"/>
		<path d="M2.8,96.6h7.9l1.8-1.8C23.4,80,10.4,69.7,2.5,58L2.8,96.6z"/>
		<path d="M24.7,3.7H2.8v1.6c2.1,0.3,4.5,1.1,6.3,1.8c4.5,2.6,7.9,6.9,7.4,12.1l9.8-1.1c1.3-3.2,1.8-8.2,0.5-10.8
			C26.3,5.8,25.5,4.5,24.7,3.7"/>
		<path d="M29.2,3.7c2.1,2.9,2.1,6.6,2.4,9.5c4-2.9,8.7-4.8,13.7-3.4c-3.4-2.6-5.8-4.8-10-6.3L29.2,3.7z"/>
		<path d="M48.7,50.9L47.9,53l-1.1-2.6c-2.4,0.5-4.8,1.3-6.1,4c-0.3,0.8,0.3,2.1-0.5,2.6c-1.6-0.3-0.8-2.9-0.8-4.5
			c1.8-1.8,6.9-5.8,8.7-4.2C48.7,48.5,49,49.9,48.7,50.9 M38.1,69.9c-1.3-1.1-0.8-2.9-0.8-4.2l0.8-0.8c1.3,4.2,4.8-0.8,7.4-0.3
			c1.3-0.5,0.8-2.4,2.1-2.1C49.7,69.1,41.8,67.8,38.1,69.9 M57.1,70.7c1.1-8.7,0.3-17.9-6.1-24c-1.3-0.3-3.2,0.5-4.2-0.8
			c-2.9,2.6-6.6,3.7-9.2,6.6c-2.9,0.8-5.8-1.1-8.7-1.6c0-0.5,0-0.8,0-1.1c-4,2.6-2.9,7.9-3.7,11.9c1.1,4.5,6.1,6.3,9.2,9
			c5,0.8,9.5-1.3,13.7-2.9c0.8,0.8,1.8,1.3,1.3,2.4c-3.4,4.8-8.4,6.9-14.3,6.3c3.4,6.6,1.1,14.3-2.6,20.1H36
			C46.6,91.8,56.3,84.4,57.1,70.7"/>
		<path d="M64.8,35.1c-2.9-10-11.9-23.5-23.8-22.7c-4.5,0.3-9,3.7-10.6,6.3c3.2,1.8,6.6,4.5,9.5,7.1c-0.3,1.1,0.5,2.4-0.8,2.9
			c-1.6-1.3-2.9-4.5-5-3.4c1.6,3.4,5.8,3.7,9,4.5c1.3,1.3,0.8,3.4,3.4,2.4c1.3,0.3,1.8,1.8,2.1,2.9c-2.1,4-7.9,1.3-11.1,2.1
			c2.6,1.1,5.5,1.3,7.9,2.9c2.4,1.6,3.2-2.1,4.2-3.4c4.2,1.1,1.8,5.5,3.7,7.9c9,9.2,7.1,25.6,2.6,36.2
			C68.5,69.9,67.4,45.1,64.8,35.1"/>
	</g>
</g>
</svg>
