<?xml version="1.0" encoding="utf-8"?>
<!-- Generator: Adobe Illustrator 24.1.3, SVG Export Plug-In . SVG Version: 6.00 Build 0)  -->
<svg version="1.1" id="Layer_1" xmlns="http://www.w3.org/2000/svg" xmlns:xlink="http://www.w3.org/1999/xlink" x="0px" y="0px"
	 viewBox="0 0 138.7 35.3" style="enable-background:new 0 0 138.7 35.3;" xml:space="preserve">
<style type="text/css">
	.st0{fill:#FFFFFF;}
</style>
<g>
	<g>
		<g>
			<g>
				<path class="st0" d="M40.7,3.5c0.6,1.4-1,2.4-2.3,3.3c-5.6,3.1-12.2,5.3-17.8,8.4c3,1.7,7.7,1.4,10.3,4c2,1.5,1.8,3.9,1.1,5.7
					c-2.6,5.2-10.8,7.7-17.2,9.6c-0.7-0.2-1.4,0.2-1.7-0.5c2.2-7,16.5-5.2,16.6-13.4c-0.1-1.1-1.4-2.1-2.6-2.7
					c-3.5-1.1-9.7-0.5-9.7-4.5c3.4-3.5,10-4,14.5-6.4c2.1-0.9,4.4-2.4,5.9-3.7c-0.3-0.8-1.5-0.6-2.2-0.9C24.9,1.4,14.1,0.7,6,5.2
					C4.5,4.9,2.7,4,2.5,2.8C3.8,2.3,5.3,2.5,6.6,2C15.1,0,24.6-0.5,34.3,0.5C36.5,1.4,39.5,1.6,40.7,3.5L40.7,3.5z"/>
				<path class="st0" d="M22.4,5.2C12.8,14,10.3,25.5,3.4,35.3C2,34.9,0.2,34.4,0,33.2C0.3,23,8.1,14.9,15.7,7
					C17.4,5.7,19.7,2.2,22.4,5.2L22.4,5.2z"/>
			</g>
		</g>
	</g>
	<g>
		<g>
			<path class="st0" d="M55.9,6.7c0,2-1.7,3.7-3.7,3.7c-2,0-3.7-1.6-3.7-3.7S50.1,3,52.2,3C54.2,3,55.9,4.6,55.9,6.7z M55.3,6.7
				c0-1.8-1.4-3.2-3.2-3.2c-1.8,0-3.2,1.4-3.2,3.2s1.4,3.2,3.2,3.2C53.9,9.9,55.3,8.4,55.3,6.7z"/>
			<path class="st0" d="M66.7,3.1v7.1h-0.5L61.3,4v6.2h-0.5V3.1h0.5l4.9,6.2V3.1H66.7z"/>
			<path class="st0" d="M76.6,9.7v0.5H72V3.1h0.5v6.6H76.6z"/>
			<path class="st0" d="M81.7,3.1v7.1h-0.5V3.1C81.2,3.1,81.7,3.1,81.7,3.1z"/>
			<path class="st0" d="M92.9,3.1v7.1h-0.5L87.5,4v6.2H87V3.1h0.5l4.9,6.2V3.1H92.9z"/>
			<path class="st0" d="M98.8,3.6v2.8h3.9v0.5h-3.9v2.8h4.3v0.5h-4.8V3.1h4.8v0.5C103.1,3.6,98.8,3.6,98.8,3.6z"/>
		</g>
	</g>
	<g>
		<path class="st0" d="M61.6,29.5h1.2C62,32.7,59.2,35,55.5,35c-4.4,0-8-3.5-8-8c0-4.5,3.6-8,8-8c3.7,0,6.5,2.2,7.3,5.4h-1.2
			c-0.7-2.6-3-4.4-6.1-4.4c-3.8,0-6.8,3-6.8,6.9c0,3.9,3,6.9,6.8,6.9C58.6,33.9,60.9,32.1,61.6,29.5z"/>
		<path class="st0" d="M76.5,29.7h-8.3l-2.3,4.9h-1.2l7.1-15.4h1.1L80,34.7h-1.2L76.5,29.7z M76.1,28.7l-3.7-8.1l-3.7,8.1H76.1z"/>
		<path class="st0" d="M94.5,23.3h-1.1c-0.4-2-1.9-3.3-4.7-3.3c-2.5,0-4.2,1.2-4.2,3.2c0,1.5,1.1,2.4,3.1,2.8l2.8,0.6
			c2.7,0.5,4.2,1.8,4.2,3.9c0,2.8-2.3,4.5-5.7,4.5c-3.7,0-5.9-1.8-6.3-5.1h1.2c0.4,2.6,2.2,4.1,5.2,4.1c2.7,0,4.4-1.3,4.4-3.4
			c0-1.5-1.1-2.5-3.2-2.9L87.1,27c-2.6-0.5-3.9-1.8-3.9-3.8c0-2.5,2.2-4.2,5.3-4.2C91.9,19,94.1,20.5,94.5,23.3z"/>
		<path class="st0" d="M100,19.2v15.4h-1.1V19.2H100z"/>
		<path class="st0" d="M118.1,19.2v15.4h-1.1l-10.6-13.5v13.5h-1.1V19.2h1L117,32.8V19.2H118.1z"/>
		<path class="st0" d="M138.7,27c0,4.5-3.6,8-8,8c-4.5,0-8-3.5-8-8s3.6-8,8-8C135.1,19,138.7,22.5,138.7,27z M137.6,27
			c0-3.8-3-6.9-6.9-6.9c-3.8,0-6.9,3.1-6.9,6.9s3,6.9,6.9,6.9C134.5,33.9,137.6,30.8,137.6,27z"/>
	</g>
	<rect x="47" y="14.1" class="st0" width="58.8" height="0.5"/>
</g>
</svg>
